# xmcd
#
# Track frame offsets: 
#        150
#        10970
#        21321
#        34372
#        46673
#        59127
#        71995
#        83635
#        94578
#        107268
#        118296
#        127267
#        140635
#        151647
#        163613
#        175328
#        186922
#        194648
#        208830
#        219383
#
# Disc length: 3116 seconds
#
# Revision: 1
# Processed by: cddbd v1.5.2PL0 Copyright (c) Steve Scherf et al.
# Submitted via: ExactAudioCopyFreeDBPlugin 1.0
#
DISCID=2b0c2a14
DTITLE=Various Artist - Train Songs:  200 Great Songs About Heroes, H
DTITLE=obos and Freight Trains [Membran Music Documents]
DYEAR=2011
DGENRE=Trains
TTITLE0=Johnny Cash - Train of Love
TTITLE1=Bob Ayres and The Secret Agent Men - Denver
TTITLE2=The Valentines - The Woo Woo Train
TTITLE3=Johnny Horton - The Train With the Rhumba Beat
TTITLE4=Tiny Bradshaw - The Train Kept A-Rollin'
TTITLE5=Jimmy Jackson's Rockin Skiffle - Midnight Train
TTITLE6=Hank Snow - One More Ride
TTITLE7=Franklin Steward - That Long Black Train
TTITLE8=Jimmie O'Neal - Streamliner Boogie
TTITLE9=Elvis Presley - Mystery Train
TTITLE10=Bill Mack - Long Long Train
TTITLE11=Jimmie Rodgers - Train Whistle Blues
TTITLE12=Benny Martin - Hobo
TTITLE13=Jimmie Dale - Tennessee Ghost Porter
TTITLE14=Ralph Pruitt - Hey Mister Porter
TTITLE15=Spade Cooley - All Aboard for Oklahoma
TTITLE16=Jerry Pitts - Keep Old Central Rolling
TTITLE17=Amos Milburn - Train Time Blues
TTITLE18=Jimmy Starr - Gonna Take an Express Train
TTITLE19=Lowell Fulson - The Train is Leavin'
EXTD=
EXTT0=
EXTT1=
EXTT2=
EXTT3=
EXTT4=
EXTT5=
EXTT6=
EXTT7=
EXTT8=
EXTT9=
EXTT10=
EXTT11=
EXTT12=
EXTT13=
EXTT14=
EXTT15=
EXTT16=
EXTT17=
EXTT18=
EXTT19=
PLAYORDER=
